{"title":"Kleinruppin_Forever[2004]DvDrip[Ger]","uid":7712206,"size":1468587063,"categoryP":"video","categoryS":"movies","magnet":"?xt=urn:btih:35eed2cdc9e27fe807d0a607d2a0161d83af991d&amp;dn=Kleinruppin_Forever%5B2004%5DDvDrip%5BGer%5D&amp;tr=udp%3A%2F%2Ftracker.openbittorrent.com%3A80&amp;tr=udp%3A%2F%2Fopen.demonii.com%3A1337&amp;tr=udp%3A%2F%2Ftracker.coppersurfer.tk%3A6969&amp;tr=udp%3A%2F%2Fexodus.desync.com%3A6969","seeders":1,"leechers":0,"uploader":"Fanchig","files":-1,"time":1349837860,"description":"The film is set in 1985 and stars Tobias Schenke as Tim Winter, a West German teenager from Bremen with aspirations of being a professional tennis player. On a school trip to East Germany, Tim meets his identical twin brother Ronny (also played by Tobias Schenke). Ronny switches places with Tim, forcing Tim to experience life and love in East Germany.\n\nFormat                                   : AVI\nFormat/Info                              : Audio Video Interleave\nFile size                                : 1.37 GiB\nDuration                                 : 1h 39mn\nOverall bit rate                         : 1 976 Kbps\nWriting application                      : VirtualDubMod 1.5.4.1 (build 2178/release)\nWriting library                          : VirtualDubMod build 2178/release\n\nVideo\nID                                       : 0\nFormat                                   : MPEG-4 Visual\nFormat profile                           : Advanced Simple@L5\nFormat settings, BVOP                    : 1\nFormat settings, QPel                    : No\nFormat settings, GMC                     : No warppoints\nFormat settings, Matrix                  : Custom\nCodec ID                                 : XVID\nCodec ID/Hint                            : XviD\nDuration                                 : 1h 39mn\nBit rate                                 : 1 521 Kbps\nWidth                                    : 640 pixels\nHeight                                   : 368 pixels\nDisplay aspect ratio                     : 1.739\nFrame rate                               : 25.000 fps\nColor space                              : YUV\nChroma subsampling                       : 4:2:0\nBit depth                                : 8 bits\nScan type                                : Progressive\nCompression mode                         : Lossy\nBits/(Pixel*Frame)                       : 0.258\nStream size                              : 1.05 GiB (77%)\nWriting library                          : XviD 1.2.0.dev47 (UTC 2006-11-01)\n\nAudio\nID                                       : 1\nFormat                                   : AC-3\nFormat/Info                              : Audio Coding 3\nMode extension                           : CM (complete main)\nFormat settings, Endianness              : Big\nCodec ID                                 : 2000\nDuration                                 : 1h 39mn\nBit rate mode                            : Constant\nBit rate                                 : 448 Kbps\nChannel(s)                               : 6 channels\nChannel positions                        : Front: L C R, Side: L R, LFE\nSampling rate                            : 48.0 KHz\nBit depth                                : 16 bits\nCompression mode                         : Lossy\nStream size                              : 318 MiB (23%)\nAlignment                                : Split accross interleaves\nInterleave, duration                     : 96 ms (2.40 video frames)\nInterleave, preload duration             : 96 ms\nLanguage                                 : Deutsch\n\nN.B. I included the only valuable subtitles I could find, ie. german's. Although english subtitles seem to be provided on the DVD, they're nowhere to be found on the internet today. Hopefully someone will share them someday.\n\nThanks to the original ripper.","torrent":{"xt":"urn:btih:35eed2cdc9e27fe807d0a607d2a0161d83af991d","amp;dn":"Kleinruppin_Forever%5B2004%5DDvDrip%5BGer%5D","amp;tr":["udp%3A%2F%2Ftracker.openbittorrent.com%3A80","udp%3A%2F%2Fopen.demonii.com%3A1337","udp%3A%2F%2Ftracker.coppersurfer.tk%3A6969","udp%3A%2F%2Fexodus.desync.com%3A6969"],"infoHash":"35eed2cdc9e27fe807d0a607d2a0161d83af991d","infoHashBuffer":{"type":"Buffer","data":[53,238,210,205,201,226,127,232,7,208,166,7,210,160,22,29,131,175,153,29]},"announce":[],"urlList":[]}}